 <svg width="500" height="500" xmlns="http://www.w3.org/2000/svg">
    <!-- Structural Elements -->
    <defs>
      <linearGradient id="linearGradient1" x1="0%" y1="0%" x2="100%" y2="0%">
        <stop offset="0%" style="stop-color:rgb(255,255,0);stop-opacity:1" />
        <stop offset="100%" style="stop-color:rgb(255,0,0);stop-opacity:1" />
      </linearGradient>
      <symbol id="starSymbol" viewBox="0 0 100 100">
        <polygon points="50,15 61,35 85,35 66,50 75,72 50,58 25,72 34,50 15,35 39,35" fill="gold" />
      </symbol>
    </defs>

    <!-- Use -->
    <use href="#starSymbol" x="20" y="20" width="50" height="50" />

    <!-- Shape Elements -->
    <rect x="10" y="10" width="100" height="50" fill="url(#linearGradient1)" />
    <circle cx="200" cy="50" r="30" fill="blue">
      <animate attributeName="r" from="10" to="30" dur="1s" repeatCount="indefinite" />
    </circle>
    <ellipse cx="300" cy="50" rx="40" ry="20" fill="green" />
    <line x1="10" y1="100" x2="300" y2="100" stroke="black" stroke-width="2" />
    <polyline points="10,110 50,140 90,110" fill="none" stroke="purple" stroke-width="2" />
    <polygon points="150,120 180,180 120,180" fill="orange" />

    <!-- Path -->
    <path d="M10 200 C 20 100, 40 100, 50 200 S 90 300, 100 200" fill="none" stroke="red" />

    <!-- Text Elements -->
    <text x="10" y="250" font-size="20" fill="black">Hello, SVG!</text>
    <text x="10" y="280" font-size="16" fill="blue">
      <tspan x="10" dy="20">This is a </tspan>
      <tspan x="10" dy="20" fill="red">multi-line</tspan>
      <tspan x="10" dy="20">text example.</tspan>
    </text>

    <!-- Text Path -->
    <path id="textPath" d="M10 320 C 120 200, 250 400, 400 300" fill="none" stroke="gray" />
    <text>
      <textPath href="#textPath" fill="purple">SVG text on a path!</textPath>
    </text>

    <!-- Gradient and Pattern -->
    <radialGradient id="radialGradient1" cx="50%" cy="50%" r="50%" fx="50%" fy="50%">
      <stop offset="0%" style="stop-color:rgb(0,255,255);stop-opacity:1" />
      <stop offset="100%" style="stop-color:rgb(0,0,255);stop-opacity:1" />
    </radialGradient>
    <rect x="350" y="200" width="100" height="100" fill="url(#radialGradient1)" />

    <!-- Animation Elements -->
    <rect x="10" y="400" width="100" height="50" fill="blue">
      <animate attributeName="x" from="10" to="300" dur="3s" repeatCount="indefinite" />
    </rect>
    
    <!-- Filter Elements -->
    <filter id="blurFilter">
      <feGaussianBlur in="SourceGraphic" stdDeviation="5" />
    </filter>
    <circle cx="400" cy="400" r="30" fill="green" filter="url(#blurFilter)" />

    <!-- Clip and Mask Elements -->
    <clipPath id="clip1">
      <circle cx="200" cy="400" r="20" />
    </clipPath>
    <rect x="180" y="380" width="100" height="50" fill="red" clip-path="url(#clip1)" />

    <mask id="mask1">
      <rect x="0" y="0" width="100" height="100" fill="white" />
      <circle cx="50" cy="50" r="30" fill="black" />
    </mask>
    <rect x="50" y="300" width="100" height="100" fill="blue" mask="url(#mask1)" />

    <!-- Metadata and Description -->
    <title>Comprehensive SVG Example</title>
    <desc>This SVG demonstrates all common SVG elements in use.</desc>
  </svg>
